<?xml version="1.0" standalone="no"?>
<!DOCTYPE svg PUBLIC "-//W3C//DTD SVG 20010904//EN"
 "http://www.w3.org/TR/2001/REC-SVG-20010904/DTD/svg10.dtd">
<svg version="1.0" xmlns="http://www.w3.org/2000/svg"
 width="521.000000pt" height="133.000000pt" viewBox="0 0 521.000000 133.000000"
 preserveAspectRatio="xMidYMid meet">

<g transform="translate(0.000000,133.000000) scale(0.100000,-0.100000)"
fill="#000000" stroke="none">
<path d="M125 1311 c-50 -22 -101 -79 -115 -128 -8 -26 -10 -197 -8 -544 l3
-505 25 -37 c14 -21 43 -50 64 -65 l39 -27 2457 -3 2457 -2 54 28 c43 22 59
38 81 81 l28 53 0 503 0 503 -28 53 c-22 43 -38 59 -81 81 l-53 28 -2442 0
c-2339 0 -2443 -1 -2481 -19z m1125 -646 l0 -625 -530 0 c-578 0 -572 -1 -633
57 -15 15 -32 43 -37 62 -14 50 -13 981 1 1018 14 37 57 82 94 99 24 10 141
13 568 14 l537 0 0 -625z m2660 215 c0 -38 -1 -40 -25 -34 -34 8 -55 -11 -55
-52 0 -32 2 -34 35 -34 33 0 35 -2 35 -35 0 -33 -2 -35 -35 -35 l-35 0 0 -125
0 -125 -55 0 -55 0 0 125 0 125 -25 0 c-22 0 -25 4 -25 35 0 30 3 35 24 35 20
0 25 6 30 44 8 49 37 93 70 106 11 5 42 9 69 9 l47 1 0 -40z m-1728 13 c22
-20 23 -41 1 -65 -30 -33 -103 -12 -103 30 0 45 66 68 102 35z m2238 -218 l0
-235 -50 0 -50 0 0 235 0 235 50 0 50 0 0 -235z m172 218 c22 -20 23 -41 1
-65 -30 -33 -103 -12 -103 30 0 45 66 68 102 35z m-2881 -164 l52 -151 52 148
52 149 72 3 71 3 0 -221 0 -220 -50 0 -49 0 -3 152 -3 152 -51 -150 -51 -149
-45 -3 -44 -3 -16 48 c-9 26 -34 100 -57 163 l-40 115 -1 -162 0 -163 -45 0
-45 0 0 220 0 220 74 0 74 0 53 -151z m983 137 c52 -22 76 -60 76 -122 0 -89
-65 -144 -170 -144 l-50 0 0 -80 0 -80 -50 0 -50 0 0 220 0 220 105 0 c67 0
118 -5 139 -14z m886 -56 l0 -50 35 0 c33 0 35 -2 35 -35 0 -33 -2 -35 -35
-35 l-35 0 0 -78 c0 -89 14 -119 49 -109 20 5 22 2 19 -31 -3 -35 -5 -37 -42
-40 -98 -8 -126 28 -126 166 0 91 0 92 -25 92 -22 0 -25 4 -25 35 0 31 3 35
25 35 22 0 25 4 25 39 0 37 2 39 43 48 23 6 45 11 50 12 4 0 7 -21 7 -49z
m-510 -58 c54 -27 80 -74 80 -144 0 -115 -50 -170 -160 -176 -55 -3 -70 0 -99
20 -48 32 -72 68 -78 116 -11 85 24 159 92 188 43 19 124 17 165 -4z m350 -22
c0 -38 -1 -39 -28 -34 -19 4 -35 -1 -52 -14 -23 -19 -25 -27 -28 -131 l-4
-111 -49 0 -49 0 0 160 0 160 50 0 c41 0 50 -3 50 -17 0 -15 3 -14 22 5 14 14
35 22 55 22 32 0 33 -2 33 -40z m760 22 c54 -27 80 -74 80 -144 0 -115 -50
-170 -160 -176 -55 -3 -70 0 -99 20 -48 32 -72 68 -78 116 -11 85 24 159 92
188 43 19 124 17 165 -4z m740 0 c54 -27 80 -74 80 -144 0 -115 -50 -170 -160
-176 -55 -3 -70 0 -99 20 -48 32 -72 68 -78 116 -11 85 24 159 92 188 43 19
124 17 165 -4z m-2730 -152 l0 -160 -50 0 -50 0 0 160 0 160 50 0 50 0 0 -160z
m2410 0 l0 -160 -50 0 -50 0 0 160 0 160 50 0 50 0 0 -160z"/>
<path d="M491 1154 c-116 -31 -235 -117 -297 -215 -52 -82 -74 -163 -74 -275
0 -111 16 -175 66 -260 61 -104 187 -198 308 -230 108 -29 275 -11 365 40 22
12 28 11 63 -14 45 -33 99 -45 129 -29 21 11 20 12 -17 29 -22 9 -50 29 -63
43 l-24 26 53 58 c109 119 153 283 119 445 -38 183 -197 345 -379 387 -63 15
-185 12 -249 -5z"/>
<path d="M2550 740 l0 -70 34 0 c47 0 79 29 79 70 0 41 -32 70 -79 70 l-34 0
0 -70z"/>
<path d="M2941 681 c-26 -26 -36 -82 -21 -125 19 -59 64 -72 105 -31 43 42 30
156 -19 169 -34 9 -45 7 -65 -13z"/>
<path d="M4051 681 c-26 -26 -36 -82 -21 -125 19 -59 64 -72 105 -31 43 42 30
156 -19 169 -34 9 -45 7 -65 -13z"/>
<path d="M4791 681 c-26 -26 -36 -82 -21 -125 19 -59 64 -72 105 -31 43 42 30
156 -19 169 -34 9 -45 7 -65 -13z"/>
</g>
</svg>
